<svg width="56" height="66" viewBox="0 0 56 66" fill="none" xmlns="http://www.w3.org/2000/svg">
<g filter="url(#filter0_dd_108_542)">
<path d="M12.4552 31.6572H18.8986V46.6039C18.8986 48.8043 21.6512 49.8423 23.1108 48.1816L38.8962 30.3286C40.2724 28.7717 39.1672 26.3428 37.082 26.3428H30.6386V11.3961C30.6386 9.19565 27.886 8.15769 26.4264 9.81843L10.641 27.6714C9.28563 29.2284 10.3908 31.6572 12.4552 31.6572Z" fill="#292D32"/>
<path d="M40.3945 31.6534L40.3946 31.6532C42.9277 28.7876 40.8667 24.3428 37.082 24.3428H32.6386V11.3961C32.6386 7.34258 27.5978 5.46002 24.9262 8.49576C24.9255 8.49654 24.9248 8.49731 24.9241 8.49808L9.14273 26.3466L9.13763 26.3524L9.13258 26.3582C6.6511 29.2086 8.67391 33.6572 12.4552 33.6572H16.8986V46.6039C16.8986 50.6573 21.9392 52.5399 24.6108 49.5044C24.6116 49.5036 24.6123 49.5028 24.6131 49.5019L40.3945 31.6534Z" stroke="white" stroke-width="4"/>
</g>
<defs>
<filter id="filter0_dd_108_542" x="2.03711" y="0.993896" width="53.481" height="64.0122" filterUnits="userSpaceOnUse" color-interpolation-filters="sRGB">
<feFlood flood-opacity="0" result="BackgroundImageFix"/>
<feColorMatrix in="SourceAlpha" type="matrix" values="0 0 0 0 0 0 0 0 0 0 0 0 0 0 0 0 0 0 127 0" result="hardAlpha"/>
<feOffset dx="1" dy="1"/>
<feGaussianBlur stdDeviation="2"/>
<feComposite in2="hardAlpha" operator="out"/>
<feColorMatrix type="matrix" values="0 0 0 0 0.407843 0 0 0 0 0 0 0 0 0 0 0 0 0 0.1 0"/>
<feBlend mode="normal" in2="BackgroundImageFix" result="effect1_dropShadow_108_542"/>
<feColorMatrix in="SourceAlpha" type="matrix" values="0 0 0 0 0 0 0 0 0 0 0 0 0 0 0 0 0 0 127 0" result="hardAlpha"/>
<feOffset dx="4" dy="4"/>
<feGaussianBlur stdDeviation="4"/>
<feComposite in2="hardAlpha" operator="out"/>
<feColorMatrix type="matrix" values="0 0 0 0 0.408333 0 0 0 0 0 0 0 0 0 0 0 0 0 0.05 0"/>
<feBlend mode="normal" in2="effect1_dropShadow_108_542" result="effect2_dropShadow_108_542"/>
<feBlend mode="normal" in="SourceGraphic" in2="effect2_dropShadow_108_542" result="shape"/>
</filter>
</defs>
</svg>
