<svg width="64" height="55" viewBox="0 0 64 55" fill="none" xmlns="http://www.w3.org/2000/svg">
<g filter="url(#filter0_dd_108_539)">
<path d="M55.2164 10.7361C53.4065 11.5381 51.4622 12.08 49.4182 12.3249C51.5034 11.0764 53.1031 9.09526 53.8574 6.73697C51.9066 7.89444 49.7455 8.73545 47.4458 9.1863C45.6033 7.22683 42.9806 6 40.0761 6C34.5011 6 29.9796 10.5215 29.9796 16.1008C29.9796 16.8898 30.0707 17.6571 30.2397 18.3984C21.8448 17.9757 14.4079 13.9549 9.4269 7.84675C8.55988 9.34237 8.06134 11.0764 8.06134 12.9232C8.06134 16.4259 9.84524 19.519 12.5525 21.3289C10.8965 21.2747 9.3402 20.8217 7.97898 20.0652V20.1953C7.97898 25.0875 11.4579 29.169 16.0791 30.0967C15.2294 30.3264 14.3386 30.4478 13.4195 30.4478C12.7693 30.4478 12.1342 30.3871 11.5186 30.2701C12.8039 34.2801 16.5321 37.2019 20.9518 37.2799C17.4945 39.9894 13.1399 41.6042 8.41032 41.6042C7.59532 41.6042 6.79116 41.5565 6 41.4633C10.4695 44.331 15.7757 46 21.4763 46C40.0522 46 50.2072 30.6147 50.2072 17.2713C50.2072 16.8378 50.1964 16.3999 50.1769 15.9664C52.1493 14.5402 53.8617 12.7649 55.2121 10.7426L55.2164 10.7361Z" fill="#F15A69"/>
<path d="M56.8808 11.8452C57.374 11.1049 57.3191 10.1279 56.746 9.44758C56.3581 8.987 55.7957 8.73737 55.2205 8.736C55.4285 8.28712 55.6098 7.82321 55.7623 7.34626C56.0154 6.55505 55.753 5.68978 55.1032 5.17235C54.4533 4.65492 53.5512 4.59306 52.8368 5.01694C51.3627 5.8916 49.7566 6.56514 48.0563 6.99924C45.9272 5.13477 43.131 4 40.0761 4C33.396 4 27.9796 9.4175 27.9796 16.1008C27.9796 16.1264 27.9797 16.152 27.9799 16.1776C21.145 15.2248 15.1415 11.6898 10.9769 6.5828C10.5617 6.07374 9.92312 5.80097 9.26833 5.85305C8.61353 5.90513 8.02606 6.27542 7.69662 6.84369C6.65918 8.63327 6.06134 10.7119 6.06134 12.9232C6.06134 14.8123 6.49482 16.6018 7.26704 18.1962C7.16338 18.2357 7.06227 18.2841 6.96484 18.3414C6.35401 18.7008 5.97898 19.3566 5.97898 20.0652V20.1953C5.97898 23.7211 7.48658 26.8941 9.89276 29.1053C9.52657 29.6162 9.41972 30.2744 9.61404 30.8806C10.6219 34.0248 12.8831 36.612 15.8117 38.0501C13.5479 39.0496 11.0445 39.6042 8.41032 39.6042C7.67342 39.6042 6.94739 39.5611 6.234 39.4771C5.30893 39.3681 4.4311 39.9121 4.11708 40.7891C3.80306 41.666 4.136 42.6436 4.91997 43.1466C9.70007 46.2136 15.3791 48 21.4763 48C41.3864 48 52.2072 31.4748 52.2072 17.2713C52.2072 17.1596 52.2066 17.0478 52.2053 16.936C54.0109 15.4938 55.5915 13.776 56.8754 11.8532L56.8764 11.8517L56.8808 11.8452Z" stroke="white" stroke-width="4" stroke-linejoin="round"/>
</g>
<defs>
<filter id="filter0_dd_108_539" x="0.552103" y="0.552591" width="63.0064" height="53.7896" filterUnits="userSpaceOnUse" color-interpolation-filters="sRGB">
<feFlood flood-opacity="0" result="BackgroundImageFix"/>
<feColorMatrix in="SourceAlpha" type="matrix" values="0 0 0 0 0 0 0 0 0 0 0 0 0 0 0 0 0 0 127 0" result="hardAlpha"/>
<feOffset dx="0.361852" dy="0.361852"/>
<feGaussianBlur stdDeviation="0.723704"/>
<feComposite in2="hardAlpha" operator="out"/>
<feColorMatrix type="matrix" values="0 0 0 0 0.407843 0 0 0 0 0 0 0 0 0 0 0 0 0 0.1 0"/>
<feBlend mode="normal" in2="BackgroundImageFix" result="effect1_dropShadow_108_539"/>
<feColorMatrix in="SourceAlpha" type="matrix" values="0 0 0 0 0 0 0 0 0 0 0 0 0 0 0 0 0 0 127 0" result="hardAlpha"/>
<feOffset dx="1.44741" dy="1.44741"/>
<feGaussianBlur stdDeviation="1.44741"/>
<feComposite in2="hardAlpha" operator="out"/>
<feColorMatrix type="matrix" values="0 0 0 0 0.408333 0 0 0 0 0 0 0 0 0 0 0 0 0 0.05 0"/>
<feBlend mode="normal" in2="effect1_dropShadow_108_539" result="effect2_dropShadow_108_539"/>
<feBlend mode="normal" in="SourceGraphic" in2="effect2_dropShadow_108_539" result="shape"/>
</filter>
</defs>
</svg>
